<svg width="24" height="24" viewBox="0 0 24 24" fill="none" xmlns="http://www.w3.org/2000/svg">
<path d="M10.9032 2.1001L20.8027 3.51431L22.2169 13.4138L13.0245 22.6061C12.634 22.9967 12.0009 22.9967 11.6103 22.6061L1.71087 12.7067C1.32034 12.3161 1.32034 11.683 1.71087 11.2924L10.9032 2.1001ZM11.6103 4.22142L3.83219 11.9995L12.3174 20.4848L20.0956 12.7067L19.035 5.28208L11.6103 4.22142ZM13.7317 10.5853C12.9506 9.80433 12.9506 8.538 13.7317 7.75695C14.5127 6.97591 15.779 6.97591 16.5601 7.75695C17.3411 8.538 17.3411 9.80433 16.5601 10.5853C15.779 11.3664 14.5127 11.3664 13.7317 10.5853Z" fill="#009966"/>
</svg>
