<svg width="24" height="24" viewBox="0 0 24 24" fill="none" xmlns="http://www.w3.org/2000/svg">
  <path fill-rule="evenodd" clip-rule="evenodd" d="M18.9142 7.61175C19.5163 7.22268 19.5163 6.29576 18.9142 5.90668L14.6443 3.14741C14.0168 2.74195 13.2127 3.22083 13.2127 3.99994V5.26243H9.17852C6.31851 5.26243 4 7.72086 4 10.7535V11.1256C4 11.9527 4.63232 12.6232 5.41232 12.6232C6.19233 12.6232 6.82465 11.9527 6.82465 11.1256V10.7535C6.82465 9.37502 7.87851 8.25756 9.17852 8.25756H13.2127V9.51849C13.2127 10.2976 14.0168 10.7765 14.6443 10.371L18.9142 7.61175Z" fill="#051634"></path>
  <path fill-rule="evenodd" clip-rule="evenodd" d="M17.1754 13.2475C17.1754 14.626 16.1215 15.7434 14.8215 15.7434H10.7863V14.4815C10.7863 13.7024 9.98224 13.2235 9.35481 13.629L5.08487 16.3883C4.48279 16.7773 4.48279 17.7042 5.08487 18.0933L9.35481 20.8526C9.98224 21.258 10.7863 20.7792 10.7863 20.0001V18.7385H14.8215C17.6815 18.7385 20 16.2801 20 13.2475V12.8754C20 12.0483 19.3677 11.3778 18.5877 11.3778C17.8077 11.3778 17.1754 12.0483 17.1754 12.8754V13.2475Z" fill="#FF5F45"></path>
</svg>